<svg width="20" height="20" viewBox="0 0 20 20" fill="none" xmlns="http://www.w3.org/2000/svg">
<g clip-path="url(#clip0_1152_519)">
<path fill-rule="evenodd" clip-rule="evenodd" d="M10 0C4.4794 0 0 4.4794 0 10C0 15.5206 4.4794 20 10 20C15.5098 20 20 15.5206 20 10C20 4.4794 15.5098 0 10 0ZM16.6052 4.60954C17.7983 6.0629 18.5141 7.91758 18.5358 9.92408C18.2538 9.86984 15.4338 9.29502 12.5922 9.65292C12.5271 9.51194 12.4729 9.36008 12.4078 9.20824C12.2343 8.7961 12.039 8.3731 11.8438 7.9718C14.9892 6.69198 16.4208 4.84816 16.6052 4.60954ZM10 1.47505C12.1692 1.47505 14.154 2.2885 15.6616 3.62256C15.5098 3.83948 14.2191 5.564 11.1822 6.70282C9.78308 4.13232 8.2321 2.0282 7.9935 1.70282C8.6334 1.55098 9.30586 1.47505 10 1.47505ZM6.3666 2.27766C6.59436 2.58134 8.1128 4.69632 9.53362 7.21258C5.5423 8.27548 2.01736 8.2538 1.63774 8.2538C2.19088 5.60738 3.98048 3.40564 6.3666 2.27766ZM1.45336 10.0108C1.45336 9.92408 1.45336 9.83732 1.45336 9.75054C1.82213 9.76138 5.9653 9.81562 10.2278 8.5358C10.4772 9.01302 10.705 9.50108 10.9219 9.98916C10.8134 10.0217 10.6941 10.0542 10.5857 10.0868C6.18222 11.5076 3.83948 15.3905 3.64426 15.7158C2.2885 14.2082 1.45336 12.2017 1.45336 10.0108ZM10 18.5466C8.02604 18.5466 6.2039 17.8742 4.76138 16.7462C4.91324 16.4317 6.6486 13.0911 11.4642 11.41C11.4859 11.3991 11.4967 11.3991 11.5184 11.3883C12.7223 14.5011 13.2104 17.115 13.3406 17.8633C12.3102 18.308 11.1822 18.5466 10 18.5466ZM14.7614 17.0824C14.6746 16.5618 14.2191 14.0672 13.102 10.9978C15.7809 10.5748 18.1236 11.269 18.4165 11.3666C18.0477 13.7419 16.6811 15.7918 14.7614 17.0824Z" fill="white"/>
</g>
<defs>
<clipPath id="clip0_1152_519">
<rect width="20" height="20" fill="white"/>
</clipPath>
</defs>
</svg>
