<svg width="178" height="116" viewBox="0 0 178 116" fill="none" xmlns="http://www.w3.org/2000/svg">
  <path d="M75.9676 13.6958L70.7621 14.7369C70.5128 14.7868 70.3333 15.0057 70.3333 15.2599V36.0966C70.3333 36.4331 70.6412 36.6856 70.9713 36.6196L74.9217 35.8295C79.0172 35.0104 83.2556 35.2742 87.2179 36.595L90.4297 37.6656C94.6182 39.0618 99.166 38.9281 103.265 37.2884L106.326 36.0643C107.136 35.7403 107.667 34.9559 107.667 34.0835V14.6964C107.667 14.3191 107.286 14.0611 106.935 14.2012L105.246 14.8769C99.9755 16.9851 94.1284 17.1569 88.7432 15.3618L85.5314 14.2912C82.4496 13.264 79.153 13.0587 75.9676 13.6958ZM65 15.2599C65 12.4634 66.9739 10.0556 69.7161 9.50718L74.9217 8.46607C76.4902 8.15236 78.0797 7.9975 79.6667 8.00003C82.2233 8.00411 84.7731 8.41668 87.2179 9.2316L90.4297 10.3022C94.6182 11.6984 99.166 11.5647 103.265 9.92501L104.955 9.24932C108.808 7.70788 113 10.5459 113 14.6964V34.0835C113 37.1367 111.141 39.8822 108.306 41.0162L105.246 42.2403C99.9755 44.3485 94.1284 44.5203 88.7432 42.7253L85.5314 41.6547C82.4496 40.6274 79.153 40.4222 75.9676 41.0592L72.0172 41.8493C71.4458 41.9636 70.8804 41.9911 70.3333 41.9419V53.3332C70.3333 54.8059 69.1394 55.9999 67.6667 55.9999C66.1939 55.9999 65 54.8059 65 53.3332V15.2599Z M25.936 107H20.816L15.696 94.44H8.13602V107H3.41602V76.48H15.696C18.6827 76.48 21.0427 77.2267 22.776 78.72C24.5093 80.1867 25.376 82.4 25.376 85.36C25.376 87.36 24.9227 89.0667 24.016 90.48C23.1093 91.8933 21.856 92.9333 20.256 93.6L25.936 107ZM8.13602 90.32H15.056C16.8693 90.32 18.256 89.9067 19.216 89.08C20.2027 88.2533 20.696 87.0533 20.696 85.48C20.696 83.96 20.2027 82.7867 19.216 81.96C18.256 81.1333 16.8693 80.72 15.056 80.72H8.13602V90.32Z M37.6632 107.44C35.5032 107.44 33.5832 106.947 31.9032 105.96C30.2232 104.947 28.9165 103.573 27.9832 101.84C27.0499 100.08 26.5832 98.12 26.5832 95.96C26.5832 93.9333 26.9965 92.0267 27.8232 90.24C28.6765 88.4533 29.9299 87.0133 31.5832 85.92C33.2365 84.8267 35.2232 84.28 37.5432 84.28C39.5165 84.28 41.3299 84.7067 42.9832 85.56C44.6632 86.4133 46.0099 87.6933 47.0232 89.4C48.0365 91.08 48.5432 93.1333 48.5432 95.56V96.76H31.0632C31.1432 97.64 31.3565 98.44 31.7032 99.16C32.2365 100.52 33.0365 101.6 34.1032 102.4C35.1699 103.2 36.3832 103.6 37.7432 103.6C39.1565 103.6 40.3699 103.24 41.3832 102.52C42.3965 101.773 43.1299 100.827 43.5832 99.68H48.1832C47.4365 101.973 46.1699 103.84 44.3832 105.28C42.6232 106.72 40.3832 107.44 37.6632 107.44ZM43.9832 93.2C43.8765 92.3733 43.6499 91.6667 43.3032 91.08C42.7699 90.0667 41.9965 89.2933 40.9832 88.76C39.9965 88.2 38.9032 87.92 37.7032 87.92C36.4499 87.92 35.3432 88.2 34.3832 88.76C33.4232 89.2933 32.6632 90.0667 32.1032 91.08C31.7832 91.6133 31.5299 92.32 31.3432 93.2H43.9832Z M60.1851 107H56.6251L48.4251 84.72H53.1851L58.3851 99.96L63.7051 84.72H68.4651L60.1851 107Z M79.5245 107.44C77.3645 107.44 75.4311 106.947 73.7244 105.96C72.0444 104.973 70.7245 103.6 69.7645 101.84C68.8311 100.053 68.3645 98.0267 68.3645 95.76C68.3645 93.5467 68.8311 91.5733 69.7645 89.84C70.7245 88.1067 72.0444 86.7467 73.7244 85.76C75.4311 84.7733 77.3645 84.28 79.5245 84.28C81.6845 84.28 83.6045 84.7733 85.2845 85.76C86.9911 86.7467 88.3111 88.1067 89.2445 89.84C90.2045 91.5733 90.6845 93.5467 90.6845 95.76C90.6845 98 90.2178 100.013 89.2845 101.8C88.3511 103.56 87.0311 104.947 85.3245 105.96C83.6445 106.947 81.7111 107.44 79.5245 107.44ZM79.5245 103.6C80.8045 103.6 81.9511 103.267 82.9645 102.6C83.9778 101.933 84.7645 101 85.3245 99.8C85.9111 98.6 86.2045 97.2533 86.2045 95.76C86.2045 94.32 85.9111 93.0267 85.3245 91.88C84.7645 90.7067 83.9778 89.7867 82.9645 89.12C81.9511 88.4533 80.8045 88.12 79.5245 88.12C78.2445 88.12 77.0978 88.4533 76.0844 89.12C75.0711 89.76 74.2711 90.6667 73.6845 91.84C73.1245 92.9867 72.8445 94.2933 72.8445 95.76C72.8445 97.28 73.1245 98.64 73.6845 99.84C74.2711 101.013 75.0711 101.933 76.0844 102.6C77.0978 103.267 78.2445 103.6 79.5245 103.6Z M98.2257 107C96.4924 107 95.1857 106.6 94.3057 105.8C93.4257 105 92.9857 103.653 92.9857 101.76V76.48H97.3857V100.68C97.3857 101.613 97.5324 102.28 97.8257 102.68C98.119 103.08 98.719 103.28 99.6257 103.28H100.866V107H98.2257Z M107.028 107H102.628V84.72H107.028V107ZM104.828 81.6C104.028 81.6 103.335 81.3333 102.748 80.8C102.162 80.2667 101.868 79.6 101.868 78.8C101.868 78 102.162 77.3333 102.748 76.8C103.335 76.2667 104.028 76 104.828 76C105.655 76 106.348 76.2667 106.908 76.8C107.495 77.3333 107.788 78 107.788 78.8C107.788 79.6 107.495 80.2667 106.908 80.8C106.348 81.3333 105.655 81.6 104.828 81.6Z M120.436 107.44C118.276 107.44 116.356 106.947 114.676 105.96C113.022 104.973 111.729 103.6 110.796 101.84C109.862 100.053 109.396 98.0267 109.396 95.76C109.396 93.5467 109.862 91.5733 110.796 89.84C111.729 88.1067 113.022 86.7467 114.676 85.76C116.356 84.7733 118.276 84.28 120.436 84.28C123.022 84.28 125.209 84.9467 126.996 86.28C128.809 87.6133 129.982 89.4 130.516 91.64H125.796C125.396 90.4933 124.729 89.6 123.796 88.96C122.862 88.32 121.742 88 120.436 88C119.156 88 118.022 88.3333 117.036 89C116.049 89.64 115.276 90.5467 114.716 91.72C114.156 92.8933 113.876 94.24 113.876 95.76C113.876 97.3333 114.156 98.72 114.716 99.92C115.276 101.12 116.049 102.053 117.036 102.72C118.022 103.387 119.156 103.72 120.436 103.72C121.822 103.72 122.996 103.36 123.956 102.64C124.942 101.893 125.596 100.907 125.916 99.68H130.676C130.169 102.08 128.982 103.973 127.116 105.36C125.276 106.747 123.049 107.44 120.436 107.44Z M143.009 107.44C140.849 107.44 138.915 106.947 137.209 105.96C135.529 104.973 134.209 103.6 133.249 101.84C132.315 100.053 131.849 98.0267 131.849 95.76C131.849 93.5467 132.315 91.5733 133.249 89.84C134.209 88.1067 135.529 86.7467 137.209 85.76C138.915 84.7733 140.849 84.28 143.009 84.28C145.169 84.28 147.089 84.7733 148.769 85.76C150.475 86.7467 151.795 88.1067 152.729 89.84C153.689 91.5733 154.169 93.5467 154.169 95.76C154.169 98 153.702 100.013 152.769 101.8C151.835 103.56 150.515 104.947 148.809 105.96C147.129 106.947 145.196 107.44 143.009 107.44ZM143.009 103.6C144.289 103.6 145.435 103.267 146.449 102.6C147.462 101.933 148.249 101 148.809 99.8C149.395 98.6 149.689 97.2533 149.689 95.76C149.689 94.32 149.395 93.0267 148.809 91.88C148.249 90.7067 147.462 89.7867 146.449 89.12C145.435 88.4533 144.289 88.12 143.009 88.12C141.729 88.12 140.582 88.4533 139.569 89.12C138.555 89.76 137.755 90.6667 137.169 91.84C136.609 92.9867 136.329 94.2933 136.329 95.76C136.329 97.28 136.609 98.64 137.169 99.84C137.755 101.013 138.555 101.933 139.569 102.6C140.582 103.267 141.729 103.6 143.009 103.6Z M156.55 107V84.72H160.95V87.84C161.937 86.5333 162.923 85.6133 163.91 85.08C164.897 84.5467 166.017 84.28 167.27 84.28C170.603 84.28 172.857 85.48 174.03 87.88C174.483 88.76 174.763 89.6667 174.87 90.6C174.977 91.5067 175.03 92.6 175.03 93.88V107H170.63V93.84C170.63 91.5733 170.243 90 169.47 89.12C168.75 88.3733 167.71 88 166.35 88C164.723 88 163.47 88.5067 162.59 89.52C162.003 90.16 161.577 91.0267 161.31 92.12C161.07 93.2133 160.95 94.6933 160.95 96.56V107H156.55Z" fill="white"/>
</svg>
