<?xml version="1.0" standalone="no"?>
<!DOCTYPE svg PUBLIC "-//W3C//DTD SVG 20010904//EN"
 "http://www.w3.org/TR/2001/REC-SVG-20010904/DTD/svg10.dtd">
<svg version="1.0" xmlns="http://www.w3.org/2000/svg"
 width="273.000000pt" height="636.000000pt" viewBox="0 0 273.000000 636.000000"
 preserveAspectRatio="xMidYMid meet">

<g transform="translate(0.000000,636.000000) scale(0.100000,-0.100000)"
fill="#000000" stroke="none">
<path d="M515 6285 c-398 -168 -495 -211 -495 -217 0 -5 0 -1157 0 -2562 l0
-2553 157 -73 c87 -40 246 -113 353 -162 107 -50 220 -101 250 -115 30 -14 78
-36 105 -48 84 -38 166 -76 565 -262 212 -99 437 -203 501 -232 l116 -53 324
159 324 159 -3 1301 -2 1300 -323 143 c-387 172 -702 310 -892 392 -77 34
-146 66 -154 72 -12 9 -13 202 -10 1280 l4 1269 -310 133 c-171 73 -321 133
-335 133 -14 0 -92 -29 -175 -64z m755 -663 l0 -408 -272 -117 c-149 -64 -273
-115 -275 -113 -2 2 -5 185 -6 406 l-2 404 155 68 c85 38 166 73 180 79 14 5
63 27 110 49 47 21 91 39 98 39 9 1 12 -87 12 -407z m0 -877 l0 -395 -32 -14
c-18 -7 -138 -59 -267 -115 -129 -55 -238 -101 -243 -101 -4 0 -8 177 -8 393
l0 393 78 32 c42 18 163 70 267 116 105 46 193 85 198 85 4 1 7 -177 7 -394z
m-2 -846 l-3 -372 -265 -113 c-146 -62 -268 -109 -273 -105 -4 4 -6 171 -5
372 l3 364 260 112 c143 62 266 112 273 113 10 0 12 -77 10 -371z m362 -565
c168 -74 309 -139 313 -143 4 -4 -52 -34 -125 -65 -73 -32 -210 -92 -305 -133
l-172 -74 -305 143 c-168 78 -306 147 -306 153 0 6 93 50 208 98 114 47 243
102 287 121 44 19 85 35 90 35 6 1 147 -60 315 -135z m699 -309 c156 -68 289
-129 294 -134 11 -11 -540 -291 -571 -291 -16 0 -216 88 -519 230 -51 24 -93
48 -93 54 0 8 577 264 600 266 3 0 133 -56 289 -125z m-981 -1108 l-3 -118
-300 -129 c-165 -70 -303 -126 -307 -123 -9 5 -11 777 -2 786 3 3 143 -63 310
-146 l305 -152 -3 -118z m2 -447 c0 -158 -4 -250 -10 -250 -8 0 -173 72 -537
235 -18 8 -33 18 -33 22 0 10 539 242 563 243 16 0 17 -18 17 -250z"/>
</g>
</svg>
