<svg width="20" height="20" viewBox="0 0 20 20" fill="none" xmlns="http://www.w3.org/2000/svg">
<path d="M6.28976 18.3332C13.8373 18.3332 17.9648 11.9217 17.9648 6.36188C17.9648 6.17977 17.9611 5.99849 17.9532 5.81802C18.7544 5.22412 19.4507 4.48299 20 3.6393C19.2648 3.97439 18.4736 4.19997 17.6436 4.30169C18.4908 3.7808 19.1412 2.95681 19.448 1.97453C18.6552 2.45645 17.7772 2.80672 16.8424 2.99583C16.0936 2.17802 15.0276 1.6665 13.8472 1.6665C11.5812 1.6665 9.74363 3.55077 9.74363 5.87339C9.74363 6.20355 9.77963 6.5247 9.85003 6.83275C6.43968 6.6568 3.41563 4.98256 1.39176 2.43676C1.03936 3.05855 0.836166 3.78082 0.836166 4.55149C0.836166 6.01123 1.56059 7.29988 2.66218 8.05376C1.98897 8.03244 1.35656 7.84294 0.803818 7.52754C0.803214 7.54519 0.803212 7.5624 0.803212 7.58127C0.803212 9.61892 2.21762 11.3202 4.09518 11.7057C3.75038 11.8021 3.38761 11.8538 3.01318 11.8538C2.74919 11.8538 2.49198 11.8271 2.24198 11.7779C2.76438 13.4497 4.2792 14.6662 6.07515 14.7002C4.67074 15.8289 2.90157 16.5012 0.978781 16.5012C0.647981 16.5012 0.321183 16.4819 0 16.4429C1.81602 17.6365 3.97236 18.3329 6.28998 18.3329" fill="white"/>
</svg>
